<svg id="On_Radio_button" data-name="On_Radio button" xmlns="http://www.w3.org/2000/svg" width="10.774" height="10.938" viewBox="0 0 10.774 10.938">
  <path id="Path_2817" data-name="Path 2817" d="M372.865,213.319h-6.341l-.133.017-.116.017-.116.017-.116.05-.1.05-.1.067-.084.065-.1.084-.1.1-.067.1-.05.1-.067.115-.033.1-.033.132-.017.116v6.707l.017.132.033.1.033.133.067.082.05.116.067.1.1.082.1.1.084.067.1.067.1.05.116.033.116.034.116.017H373l.133-.017.1-.034.116-.033.1-.05.1-.067.1-.067.082-.1.1-.082.067-.1.067-.116.05-.082.033-.133.034-.1.017-.132v-6.707l-.017-.116-.034-.132-.033-.1-.05-.115-.067-.1-.067-.1-.1-.1-.082-.084-.1-.065-.1-.067-.1-.05-.116-.05-.1-.017-.133-.017Zm2.224,1.246v6.457l-.017.248-.033.217-.051.2-.082.2-.084.2-.115.183-.133.166-.149.181-.151.151-.181.132-.183.1-.183.1-.216.082-.2.05-.216.034-.233.015h-6.341l-.233-.015-.216-.034-.216-.05-.183-.082-.2-.1-.183-.1-.166-.132-.183-.151-.132-.181-.151-.166-.1-.183-.1-.2-.067-.2-.05-.2-.017-.217-.017-.248v-6.457l.017-.216.017-.216.05-.216.067-.2.1-.181.1-.2.151-.166.132-.166.183-.166.166-.132.183-.116.2-.1.183-.05.216-.065.216-.034H373.1l.216.034.2.065.216.05.183.1.183.116.181.132.151.166.149.166.133.166.115.2.084.181.082.2.051.216.033.216Z" transform="translate(-364.315 -212.34)" fill="#ccc" fill-rule="evenodd"/>
  <path id="Path_2818" data-name="Path 2818" d="M389.352,244.7v3.736l-.008.109-.017.108-.025.1-.033.108-.041.092-.058.092-.067.091-.074.083-.083.083-.092.067-.091.058-.092.041-.1.033-.1.033-.108.016h-3.9l-.1-.016-.108-.033-.1-.033-.091-.041-.092-.058-.092-.067-.083-.083-.074-.083-.067-.091-.058-.092-.041-.092-.033-.108-.025-.1-.016-.108-.009-.109V244.7l.009-.108.016-.116.025-.1.033-.1.041-.1.058-.092.067-.083.074-.092.083-.074.092-.074.092-.051.091-.05.1-.033.108-.025.1-.016h3.9l.108.016.1.025.1.033.092.05.091.051.092.074.083.074.074.092.067.083.058.092.041.1.033.1.025.1.017.116Z" transform="translate(-381.028 -241.114)" fill="#ccc" fill-rule="evenodd"/>
</svg>
